{"title":"Warrior Assassin 2013 DVDRip ENGDUB x264 AC3-MiLLENiUM","uid":9924601,"size":1559228202,"categoryP":"video","categoryS":"movies","magnet":"?xt=urn:btih:def33f64f19147168bba87ff8d9c6002bfc883c4&amp;dn=Warrior+Assassin+2013+DVDRip+ENGDUB+x264+AC3-MiLLENiUM&amp;tr=udp%3A%2F%2Ftracker.openbittorrent.com%3A80&amp;tr=udp%3A%2F%2Fopen.demonii.com%3A1337&amp;tr=udp%3A%2F%2Ftracker.coppersurfer.tk%3A6969&amp;tr=udp%3A%2F%2Fexodus.desync.com%3A6969","seeders":21,"leechers":0,"uploader":"xxxlavalxxx","files":-1,"time":1397003944,"description":"\n\n &lt;a href=&quot;\nhttp://www.imdb.com/title/tt3581276/&quot; rel=&quot;nofollow&quot; target=&quot;_NEW&quot;&gt;\nhttp://www.imdb.com/title/tt3581276/&lt;/a&gt;\n\n\nTwo men both experience life-altering events and embark on the journey towards revenge. Stopping at nothing until their punisher pays for what they have done.\n\nDirector: Dou Xiao\nStars: Ji Chunhua, Bryan Leung, Yuanjia Pan\nGenres: Action\n\n\nWarrior Assassin 2013 DVDRip ENGDUB x264 AC3-MiLLENiUM                  \n\nGeneral\n\nSource...............: NTSC.DVDR [THANKS]\nIMDb Information.... : http://www.imdb.com/title/tt3581276/\nSample Included......: yes\n\nGeneral\nComplete name                            : Warrior Assassin 2013 DVDRip ENGDUB x264 AC3-MiLLENiUM.mkv\nFormat                                   : Matroska\nFormat version                           : Version 2\nFile size                                : 1.42 GiB\nDuration                                 : 1h 31mn\nOverall bit rate mode                    : Variable\nOverall bit rate                         : 2 220 Kbps\nEncoded date                             : UTC 2014-04-09 07:27:42\nWriting application                      : mkvmerge v6.8.0 ('Theme for Great Cities') 32bit built on Mar  2 2014 21:27:07\nWriting library                          : libebml v1.3.0 + libmatroska v1.4.1\n\nVideo\nID                                       : 1\nFormat                                   : AVC\nFormat/Info                              : Advanced Video Codec\nFormat profile                           : &lt;a class=&quot;__cf_email__&quot; href=&quot;/cdn-cgi/l/email-protection&quot; data-cfemail=&quot;90d8f9f7f8d0dca4bea1&quot;&gt;[email&amp;#160;protected]&lt;/a&gt;&lt;script cf-hash='f9e31' type=&quot;text/javascript&quot;&gt;\n/* &lt;![CDATA[ */!function(){try{var t=&quot;currentScript&quot;in document?document.currentScript:function(){for(var t=document.getElementsByTagName(&quot;script&quot;),e=t.length;e--;)if(t[e].getAttribute(&quot;cf-hash&quot;))return t[e]}();if(t&amp;&amp;t.previousSibling){var e,r,n,i,c=t.previousSibling,a=c.getAttribute(&quot;data-cfemail&quot;);if(a){for(e=&quot;&quot;,r=parseInt(a.substr(0,2),16),n=2;a.length-n;n+=2)i=parseInt(a.substr(n,2),16)^r,e+=String.fromCharCode(i);e=document.createTextNode(e),c.parentNode.replaceChild(e,c)}}}catch(u){}}();/* ]]&gt; */&lt;/script&gt;\nFormat settings, CABAC                   : Yes\nFormat settings, ReFrames                : 3 frames\nCodec ID                                 : V_MPEG4/ISO/AVC\nDuration                                 : 1h 31mn\nBit rate mode                            : Variable\nBit rate                                 : 1 728 Kbps\nMaximum bit rate                         : 40.0 Mbps\nWidth                                    : 720 pixels\nHeight                                   : 400 pixels\nDisplay aspect ratio                     : 16:9\nFrame rate mode                          : Constant\nFrame rate                               : 23.976 fps\nColor space                              : YUV\nChroma subsampling                       : 4:2:0\nBit depth                                : 8 bits\nScan type                                : Progressive\nBits/(Pixel*Frame)                       : 0.250\nStream size                              : 1.11 GiB (78%)\nWriting library                          : x264 core 142 r2409 d6b4e63\n\nAudio\nID                                       : 2\nFormat                                   : AC-3\nFormat/Info                              : Audio Coding 3\nMode extension                           : CM (complete main)\nFormat settings, Endianness              : Big\nCodec ID                                 : A_AC3\nDuration                                 : 1h 31mn\nBit rate mode                            : Constant\nBit rate                                 : 448 Kbps\nChannel(s)                               : 6 channels\nChannel positions                        : Front: L C R, Side: L R, LFE\nSampling rate                            : 48.0 KHz\nBit depth                                : 16 bits\nCompression mode                         : Lossy\nStream size                              : 294 MiB (20%)\nLanguage                                 : English\nDefault                                  : Yes\nForced                                   : No\n\n\nscreens\n &lt;a href=&quot;\nhttp://i.imgur.com/ehFqjUL.png&quot; rel=&quot;nofollow&quot; target=&quot;_NEW&quot;&gt;\nhttp://i.imgur.com/ehFqjUL.png&lt;/a&gt; &lt;a href=&quot;\nhttp://i.imgur.com/EhJXJRQ.png&quot; rel=&quot;nofollow&quot; target=&quot;_NEW&quot;&gt;\nhttp://i.imgur.com/EhJXJRQ.png&lt;/a&gt; &lt;a href=&quot;\nhttp://i.imgur.com/EQIEM9G.png&quot; rel=&quot;nofollow&quot; target=&quot;_NEW&quot;&gt;\nhttp://i.imgur.com/EQIEM9G.png&lt;/a&gt; &lt;a href=&quot;\nhttp://i.imgur.com/ytIwuwP.png&quot; rel=&quot;nofollow&quot; target=&quot;_NEW&quot;&gt;\nhttp://i.imgur.com/ytIwuwP.png&lt;/a&gt; &lt;a href=&quot;\nhttp://i.imgur.com/pxgfpgu.png&quot; rel=&quot;nofollow&quot; target=&quot;_NEW&quot;&gt;\nhttp://i.imgur.com/pxgfpgu.png&lt;/a&gt; &lt;a href=&quot;\nhttp://i.imgur.com/Vt5dCHl.png&quot; rel=&quot;nofollow&quot; target=&quot;_NEW&quot;&gt;\nhttp://i.imgur.com/Vt5dCHl.png&lt;/a&gt;","torrent":{"xt":"urn:btih:def33f64f19147168bba87ff8d9c6002bfc883c4","amp;dn":"Warrior+Assassin+2013+DVDRip+ENGDUB+x264+AC3-MiLLENiUM","amp;tr":["udp%3A%2F%2Ftracker.openbittorrent.com%3A80","udp%3A%2F%2Fopen.demonii.com%3A1337","udp%3A%2F%2Ftracker.coppersurfer.tk%3A6969","udp%3A%2F%2Fexodus.desync.com%3A6969"],"infoHash":"def33f64f19147168bba87ff8d9c6002bfc883c4","infoHashBuffer":{"type":"Buffer","data":[222,243,63,100,241,145,71,22,139,186,135,255,141,156,96,2,191,200,131,196]},"announce":[],"urlList":[]}}